<?xml version="1.0" encoding="UTF-8" standalone="no"?>
<svg
   version="1.1"
   viewBox="0 0 32 32"
   id="svg4"
   sodipodi:docname="audio-volume-high.svg"
   inkscape:version="1.3.2 (091e20ef0f, 2023-11-25, custom)"
   xmlns:inkscape="http://www.inkscape.org/namespaces/inkscape"
   xmlns:sodipodi="http://sodipodi.sourceforge.net/DTD/sodipodi-0.dtd"
   xmlns="http://www.w3.org/2000/svg"
   xmlns:svg="http://www.w3.org/2000/svg">
  <sodipodi:namedview
     id="namedview4"
     pagecolor="#c8c8c8"
     bordercolor="#000000"
     borderopacity="0.25"
     inkscape:showpageshadow="2"
     inkscape:pageopacity="0.0"
     inkscape:pagecheckerboard="0"
     inkscape:deskcolor="#d1d1d1"
     inkscape:zoom="8.761495"
     inkscape:cx="10.043948"
     inkscape:cy="17.29157"
     inkscape:window-width="1920"
     inkscape:window-height="1000"
     inkscape:window-x="0"
     inkscape:window-y="0"
     inkscape:window-maximized="1"
     inkscape:current-layer="svg4" />
  <defs
     id="defs1">
    <style
       id="current-color-scheme"
       type="text/css">.ColorScheme-Text { color:#363636; }</style>
  </defs>
  <path
     id="audio"
     style="fill:#fefefe;fill-opacity:1;stroke:none;stroke-width:1.5;stroke-linecap:round;stroke-linejoin:round;stroke-miterlimit:4;stroke-dasharray:none;stroke-opacity:1"
     d="M 13.976562 4.5 C 13.898563 4.495 13.802626 4.5049438 13.697266 4.5273438 C 13.591896 4.5497437 13.477807 4.5852 13.367188 4.625 C 13.256558 4.6649 13.148457 4.7098925 13.054688 4.7578125 C 12.960888 4.8057125 12.880962 4.8559138 12.826172 4.9023438 L 6.8183594 10.498047 L 2.7265625 10.498047 C 2.5377027 10.498047 2.3536411 10.50945 2.1757812 10.53125 C 1.9979214 10.55305 1.8273223 10.584506 1.6640625 10.628906 C 1.5824626 10.651106 1.5030812 10.677078 1.4257812 10.705078 C 1.3484813 10.733078 1.2736918 10.763075 1.2011719 10.796875 C 1.1286719 10.830675 1.0575343 10.868373 0.99023438 10.908203 C 0.92293444 10.948003 0.85849494 10.991209 0.796875 11.037109 C 0.73527506 11.083009 0.67659369 11.131604 0.62109375 11.183594 C 0.56559381 11.235594 0.5137637 11.289396 0.46484375 11.347656 C 0.4159438 11.405956 0.37004496 11.468603 0.328125 11.533203 C 0.28622504 11.597803 0.24732059 11.665298 0.21289062 11.736328 C 0.17849066 11.807328 0.14944685 11.881424 0.12304688 11.958984 C 0.096546902 12.036584 0.072787482 12.116992 0.0546875 12.201172 C 0.036587518 12.285372 0.022971866 12.373954 0.013671875 12.464844 C 0.004671884 12.555744 2.3129623e-18 12.650357 0 12.748047 L 0 18.751953 C 0 18.849653 0.0039718847 18.946456 0.013671875 19.041016 C 0.022671866 19.135616 0.036587518 19.227339 0.0546875 19.318359 C 0.072787482 19.409359 0.096546901 19.498838 0.12304688 19.585938 C 0.14954685 19.673037 0.17849066 19.759017 0.21289062 19.841797 C 0.24729059 19.924597 0.28619504 20.003981 0.328125 20.082031 C 0.37002496 20.160131 0.4159238 20.235644 0.46484375 20.308594 C 0.5137437 20.381494 0.56560381 20.452101 0.62109375 20.519531 C 0.67659369 20.586931 0.73525506 20.651371 0.796875 20.712891 C 0.85847494 20.774391 0.92294444 20.833452 0.99023438 20.888672 C 1.0575343 20.943872 1.1286519 20.996402 1.2011719 21.044922 C 1.2736718 21.093422 1.3484813 21.138218 1.4257812 21.179688 C 1.5030812 21.221087 1.5824426 21.258989 1.6640625 21.292969 C 1.7456624 21.326869 1.8285626 21.356813 1.9140625 21.382812 C 1.9995624 21.408812 2.0868513 21.429466 2.1757812 21.447266 C 2.2646812 21.465066 2.3553657 21.479181 2.4472656 21.488281 C 2.5391655 21.497281 2.6321326 21.501953 2.7265625 21.501953 L 6.8183594 21.501953 L 13.126953 27.238281 C 13.181753 27.284681 13.243034 27.324785 13.308594 27.359375 C 13.374194 27.393875 13.444558 27.421259 13.517578 27.443359 C 13.590578 27.465459 13.666991 27.481134 13.744141 27.490234 C 13.821241 27.499234 13.898613 27.502447 13.976562 27.498047 C 14.041562 27.494047 14.106432 27.486356 14.169922 27.472656 C 14.233422 27.458956 14.295349 27.440016 14.355469 27.416016 C 14.415569 27.392016 14.474437 27.362825 14.529297 27.328125 C 14.584097 27.293425 14.635914 27.252821 14.683594 27.207031 C 14.731294 27.161231 14.77389 27.109934 14.8125 27.052734 C 14.8511 26.995534 14.886403 26.932301 14.914062 26.863281 C 14.941662 26.794281 14.961763 26.719872 14.976562 26.638672 C 14.991362 26.557472 15 26.46876 15 26.375 L 15 5.6210938 C 15 5.5272938 14.990962 5.4405749 14.976562 5.359375 C 14.961763 5.2781751 14.941662 5.2037856 14.914062 5.1347656 C 14.886463 5.0657657 14.85106 5.0025224 14.8125 4.9453125 C 14.7739 4.8881126 14.731304 4.8367956 14.683594 4.7910156 C 14.635894 4.7452157 14.584097 4.7046218 14.529297 4.6699219 C 14.474497 4.6352219 14.415589 4.6060312 14.355469 4.5820312 C 14.295369 4.5580313 14.233422 4.5390906 14.169922 4.5253906 C 14.106422 4.5116906 14.041542 4.5038 13.976562 4.5 z M 25.046875 5.7050781 A 0.75 0.75 0 0 0 24.515625 5.9238281 A 0.75 0.75 0 0 0 24.515625 6.984375 C 26.906913 9.3756628 28.25 12.618208 28.25 16 C 28.25 19.381792 26.906913 22.624337 24.515625 25.015625 A 0.75 0.75 0 0 0 24.515625 26.076172 A 0.75 0.75 0 0 0 25.576172 26.076172 C 28.248356 23.403988 29.75 19.779039 29.75 16 C 29.75 12.220961 28.248356 8.5960125 25.576172 5.9238281 A 0.75 0.75 0 0 0 25.046875 5.7050781 z M 13.611328 6.1054688 L 13.611328 25.990234 L 7.4863281 20.199219 L 2.8632812 20.199219 C 2.7302114 20.199219 2.6062474 20.187916 2.4921875 20.166016 C 2.3781076 20.144016 2.2735343 20.110859 2.1777344 20.068359 C 2.0820345 20.025859 1.9960687 19.973759 1.9179688 19.912109 C 1.8398688 19.850409 1.7682312 19.780672 1.7070312 19.701172 C 1.6459313 19.621772 1.5956812 19.5333 1.5507812 19.4375 C 1.5059813 19.3417 1.4686831 19.237713 1.4394531 19.126953 C 1.4101532 19.016203 1.3892 18.897767 1.375 18.773438 C 1.3614 18.649128 1.3535156 18.519302 1.3535156 18.382812 L 1.3535156 13.589844 C 1.3535156 13.453354 1.3605 13.321996 1.375 13.197266 C 1.3892 13.072526 1.4102532 12.953117 1.4394531 12.841797 C 1.4686531 12.730417 1.5058513 12.62775 1.5507812 12.53125 C 1.5955812 12.43485 1.6477844 12.345525 1.7089844 12.265625 C 1.7700843 12.185725 1.8398688 12.114534 1.9179688 12.052734 C 1.9960687 11.990934 2.0819345 11.938474 2.1777344 11.896484 C 2.2734343 11.854484 2.3781176 11.825287 2.4921875 11.804688 C 2.6062374 11.784288 2.7302214 11.773391 2.8632812 11.775391 L 7.4863281 11.775391 L 13.611328 6.1054688 z M 20.978516 10.662109 A 0.75 0.75 0 0 0 20.566406 10.873047 A 0.75 0.75 0 0 0 20.566406 11.933594 C 21.644942 13.01213 22.25 14.47472 22.25 16 C 22.25 17.525279 21.644942 18.98787 20.566406 20.066406 A 0.75 0.75 0 0 0 20.566406 21.126953 A 0.75 0.75 0 0 0 21.626953 21.126953 C 22.986386 19.76752 23.75 17.922527 23.75 16 C 23.75 14.077472 22.986386 12.23248 21.626953 10.873047 A 0.75 0.75 0 0 0 20.978516 10.662109 z " />
</svg>
